<svg id="Layer_2" data-name="Layer 2" xmlns="http://www.w3.org/2000/svg" viewBox="0 0 1790.37 1829"><defs><style>.cls-1{fill:#91b9ca;}</style></defs><title>Logo Rizal</title><path class="cls-1" d="M1558.49,94h-1118c-185.67,0-336.2,150.52-336.2,336.2V1586.8c0,185.68,150.53,336.2,336.2,336.2h1118c185.67,0,336.2-150.52,336.2-336.2V430.2C1894.69,244.52,1744.16,94,1558.49,94Zm-265.2,1517.09H637.82c-.94,0-1.9,0-2.84-.12-91.9-7.51-84.68-75.75-82.15-90a33.7,33.7,0,0,0,.53-5.93V792.19c1.93-54.08,56-108.16,56-108.16l272.75-267a32.3,32.3,0,0,1,3.19-2.77c101-76.7,209.2-13.52,228.86-.82a33.31,33.31,0,0,1,5.44,4.39l351.15,349.23c139.51,153.45,55.09,300.69,16.32,352.84a33.67,33.67,0,0,0,2.29,43.06c26.06,28,58.65,58.92,58.65,171.92,0,149.23-199.55,253.25-240.09,272.84A33.67,33.67,0,0,1,1293.29,1611.09Z" transform="translate(-104.31 -94)"/><path class="cls-1" d="M1056.62,530.42a124.85,124.85,0,0,1-8.81-9.44c-10-11.81-45.3-45-95.63,3.71L696.55,780.32c-1,1-2,2-3.07,3-4.4,4.11-24.24,24.33-24.24,55.23v627.69s0,19.32,11.59,19.32H936.6c3.51,0,7,.23,10.51.57,6.52.63,19.56-.09,19.56-16l1.8-369.93a121.57,121.57,0,0,1,15.76-59.72c5.52-9.68,12.37-19.75,20.33-27.71l13.27-13.18,231.7-238.71,17.9-17.12c2.23-2.22,3.62-6.39-3.33-13.35Z" transform="translate(-104.31 -94)"/><path class="cls-1" d="M1083.51,1259.55v214.59a5.92,5.92,0,0,0,.25,1.72c.75,2.39,3.36,8.69,10.64,10.5a6.09,6.09,0,0,0,1.41.15h196.57a6,6,0,0,0,3.15-.89c6-3.71,27.59-18.31,15.88-30l-210.55-203.42A10.24,10.24,0,0,0,1083.51,1259.55Z" transform="translate(-104.31 -94)"/><path class="cls-1" d="M1120.21,1100.24,1379,1359s25.11,25.11,40.56,0c0,0,23.75-31.06,2-96.73a25.14,25.14,0,0,0-5.9-9.67l-77.77-79.54a25.13,25.13,0,0,1-5.48-8.51c-4.7-12.14-13.7-43,6.08-64.35l73.08-78.69a25.26,25.26,0,0,0,4.16-6.07c8.86-18,41.9-100-44-179.63a24.68,24.68,0,0,0-7-4.57c-5.53-2.38-15.08-4.92-23.67.52a21.53,21.53,0,0,0-4,3.43l-214.17,225.54a24.83,24.83,0,0,0-4.88,7.38C1114.81,1075.6,1110.42,1090.45,1120.21,1100.24Z" transform="translate(-104.31 -94)"/></svg>